<svg xmlns="http://www.w3.org/2000/svg" viewBox="0 0 48 36">
<defs>
<linearGradient id="g" x1="0" x2="0" y1="0" y2="1">
<stop offset="0" stop-color="#ffd54d"/>
<stop offset="1" stop-color="#ffb300"/>
</linearGradient>
</defs>
<g>
<ellipse cx="24" cy="20" rx="16" ry="11" fill="url(#g)"/>
<ellipse cx="17" cy="20" rx="7" ry="5" fill="#ffc107"/>
<path d="M6 18c4 0 6 2 6 2s-2 3-6 3-5-5 0-5z" fill="#ff9800"/>
<circle cx="30" cy="16" r="4.5" fill="#fff"/>
<circle cx="31.5" cy="16" r="2.2" fill="#263238"/>
<path d="M36 18l7 3-7 3c-2 0-3-1-3-3s1-3 3-3z" fill="#fb8c00"/>
<path d="M20 26c4 3 10 3 15 0" stroke="#f57c00" stroke-width="1.5" fill="none"/>
<ellipse cx="14" cy="24" rx="4.5" ry="3" fill="#ffa000"/>
</g>
</svg>
