<svg xmlns="http://www.w3.org/2000/svg" viewBox="0 0 64 64">
<defs>
<linearGradient id="dress" x1="0" y1="0" x2="0" y2="1">
<stop offset="0" stop-color="#ffc1dc"/><stop offset="1" stop-color="#ff8fb3"/>
}</defs>
<g>
<ellipse cx="32" cy="12" rx="9" ry="6" fill="#ffe0f0" opacity=".7"/>
<path d="M12 24c8-10 16-10 20-10s12 0 20 10" stroke="#ffd6e7" stroke-width="6" fill="none" opacity=".9"/>
<circle cx="32" cy="18" r="6" fill="#ffe0cc"/>
<path d="M24 24h16l6 18-14 8-14-8z" fill="url(#dress)"/>
<path d="M20 26c-6 4-10 10-10 14 8-2 12-6 14-12" fill="#e6f4ff" opacity=".9"/>
<path d="M44 26c6 4 10 10 10 14-8-2-12-6-14-12" fill="#e6f4ff" opacity=".9"/>
<circle cx="27" cy="16" r="1.8" fill="#4a3b2a"/>
<circle cx="37" cy="16" r="1.8" fill="#4a3b2a"/>
<path d="M28 21c2 1 4 1 8 0" stroke="#e48fbf" stroke-width="1.5" fill="none"/>
</g>
</svg>
